<svg width="209" height="166" viewBox="0 0 209 166" fill="none" xmlns="http://www.w3.org/2000/svg">
<path d="M48.1479 0C21.5703 0 0 21.5703 0 48.1479C0 55.659 1.73333 62.3997 4.81479 68.5627C10.5925 64.5182 17.1407 61.4368 24.074 59.5108C34.6665 35.4369 59.1257 19.2592 86.6663 19.2592C77.8071 7.70367 63.9405 0 48.1479 0ZM86.6663 38.5183C63.3627 38.5183 42.948 55.0812 38.5183 77.0367C17.3333 77.0367 0 94.3699 0 115.555C0 136.74 17.3333 154.073 38.5183 154.073H125.185C141.17 154.073 154.073 141.17 154.073 125.185C154.073 112.666 145.985 100.34 134.814 96.2959V86.6663C134.814 60.0886 113.244 38.5183 86.6663 38.5183Z" fill="url(#paint0_linear_7_11)"/>
<path d="M98.5549 0.488159C71.9773 0.488159 50.407 22.0584 50.407 48.6361C50.407 56.1472 52.1403 62.8879 55.2218 69.0508C60.9995 65.0064 67.5476 61.9249 74.4809 59.999C85.0735 35.925 109.533 19.7473 137.073 19.7473C128.214 8.19183 114.347 0.488159 98.5549 0.488159ZM137.073 39.0065C113.77 39.0065 93.3549 55.5694 88.9253 77.5248C67.7402 77.5248 50.407 94.8581 50.407 116.043C50.407 137.228 67.7402 154.562 88.9253 154.562H175.592C191.577 154.562 204.48 141.658 204.48 125.673C204.48 113.154 196.392 100.828 185.221 96.784V87.1544C185.221 60.5768 163.651 39.0065 137.073 39.0065Z" fill="url(#paint1_linear_7_11)"/>
<path d="M7.13385 135.963L7.27542 133.907L15.2666 133.106L15.1378 134.657C14.9492 137.189 15.496 139.008 16.7781 140.115C18.0582 141.201 19.9317 141.62 22.3985 141.373C24.8238 141.129 26.7272 140.373 28.1087 139.104C29.5109 137.832 30.2874 136.163 30.4384 134.096C30.5828 132.386 29.9952 131 28.6757 129.939C27.3749 128.855 25.0304 127.907 21.642 127.095C17.116 126 13.8807 124.409 11.9361 122.322C9.99144 120.235 9.16138 117.565 9.44591 114.312C9.75801 110.281 11.3183 107.015 14.1269 104.514C16.9541 101.99 20.6686 100.497 25.2705 100.036C29.7688 99.5843 33.2981 100.34 35.8584 102.303C38.4375 104.242 39.5802 107.216 39.2868 111.224L39.1612 112.807L31.2944 113.596L31.37 112.458C31.5562 110.324 31.0921 108.706 29.9779 107.604C28.8844 106.499 27.1975 106.061 24.9173 106.29C22.637 106.518 20.8746 107.219 19.63 108.39C18.4041 109.539 17.7147 111.032 17.5619 112.869C17.428 114.474 18.028 115.775 19.3621 116.771C20.6961 117.768 23.1091 118.667 26.6011 119.469C31.036 120.489 34.204 122.035 36.1051 124.106C38.0269 126.174 38.8423 129.013 38.5513 132.623C38.237 136.842 36.5967 140.252 33.6306 142.852C30.6644 145.453 26.7871 146.994 21.9987 147.474C17.3138 147.944 13.5783 147.22 10.792 145.301C8.02433 143.359 6.80496 140.246 7.13385 135.963ZM44.3806 144.538L47.0238 109.442C47.3359 105.412 48.6557 102.254 50.9832 99.9686C53.3314 97.6811 56.3711 96.3502 60.1024 95.9759C60.8694 95.8989 61.6001 95.878 62.2944 95.913C62.9867 95.9273 63.6727 95.9841 64.3525 96.0834L63.4675 102.359C63.1069 102.312 62.6851 102.281 62.2022 102.266C61.7379 102.229 61.226 102.239 60.6663 102.295C59.0287 102.459 57.7223 103.114 56.7472 104.258C55.77 105.382 55.1892 107.126 55.0049 109.49L54.5586 115.439L54.6298 115.84L52.4961 143.724L44.3806 144.538ZM41.4365 121.184L41.8923 115.014L48.6708 114.334L49.417 114.259L60.7352 113.123L60.2794 119.293L41.4365 121.184ZM61.0276 128.421L61.1154 127.407C61.457 122.829 63.139 118.996 66.1615 115.908C69.2048 112.818 73.0481 111.04 77.6914 110.574C82.3555 110.106 85.9851 111.135 88.5802 113.659C91.1754 116.183 92.3022 119.734 91.9606 124.312L91.8727 125.326C91.5145 129.947 89.8242 133.802 86.8017 136.89C83.7771 139.957 79.9328 141.725 75.2687 142.193C70.6046 142.661 66.976 141.643 64.383 139.139C61.7878 136.615 60.6694 133.042 61.0276 128.421ZM69.4239 126.322L69.3232 127.84C69.1262 130.497 69.565 132.6 70.6395 134.146C71.7327 135.669 73.4297 136.316 75.7307 136.085C78.0731 135.85 79.9104 134.849 81.2425 133.082C82.5726 131.295 83.3351 129.062 83.53 126.383L83.6338 124.896C83.8516 122.236 83.4149 120.155 82.3237 118.652C81.2326 117.149 79.5262 116.515 77.2045 116.747C74.9036 116.978 73.086 117.967 71.7518 119.713C70.4176 121.459 69.6416 123.662 69.4239 126.322ZM95.3162 127.116L95.4578 125.061L103.449 124.259L103.32 125.811C103.132 128.342 103.678 130.161 104.96 131.268C106.241 132.354 108.114 132.773 110.581 132.526C113.006 132.282 114.91 131.526 116.291 130.257C117.693 128.986 118.47 127.316 118.621 125.249C118.765 123.539 118.178 122.153 116.858 121.092C115.557 120.008 113.213 119.06 109.824 118.249C105.298 117.153 102.063 115.562 100.118 113.475C98.1738 111.388 97.3437 108.718 97.6283 105.465C97.9404 101.434 99.5007 98.1686 102.309 95.6674C105.136 93.1434 108.851 91.6506 113.453 91.1889C117.951 90.7376 121.48 91.4933 124.041 93.4558C126.62 95.3956 127.763 98.3693 127.469 102.377L127.344 103.96L119.477 104.749L119.552 103.611C119.738 101.477 119.274 99.8594 118.16 98.7568C117.067 97.6521 115.38 97.2142 113.1 97.4429C110.819 97.6717 109.057 98.3719 107.812 99.5437C106.586 100.693 105.897 102.186 105.744 104.023C105.61 105.627 106.21 106.928 107.544 107.925C108.878 108.922 111.291 109.821 114.783 110.622C119.218 111.643 122.386 113.188 124.287 115.259C126.209 117.327 127.025 120.166 126.734 123.776C126.419 127.995 124.779 131.405 121.813 134.006C118.847 136.606 114.969 138.147 110.181 138.627C105.496 139.097 101.761 138.373 98.9743 136.454C96.2067 134.512 94.9873 131.4 95.3162 127.116ZM130.864 121.414L130.952 120.4C131.294 115.823 132.976 111.99 135.998 108.902C139.042 105.812 142.885 104.034 147.528 103.568C152.192 103.1 155.822 104.128 158.417 106.653C161.012 109.177 162.139 112.728 161.798 117.306L161.71 118.32C161.351 122.941 159.661 126.796 156.639 129.884C153.614 132.951 149.77 134.719 145.106 135.187C140.442 135.654 136.813 134.637 134.22 132.133C131.625 129.609 130.506 126.036 130.864 121.414ZM139.261 119.316L139.16 120.833C138.963 123.491 139.402 125.593 140.476 127.14C141.57 128.663 143.267 129.309 145.568 129.079C147.91 128.844 149.747 127.843 151.079 126.076C152.41 124.288 153.172 122.055 153.367 119.377L153.471 117.89C153.688 115.23 153.252 113.149 152.161 111.646C151.07 110.143 149.363 109.508 147.041 109.741C144.741 109.972 142.923 110.96 141.589 112.707C140.255 114.453 139.479 116.656 139.261 119.316ZM167.139 132.222L169.783 97.1269C170.095 93.0964 171.414 89.9385 173.742 87.6531C176.09 85.3656 179.13 84.0347 182.861 83.6604C183.628 83.5834 184.359 83.5625 185.053 83.5975C185.745 83.6118 186.432 83.6686 187.111 83.7679L186.226 90.0438C185.866 89.9963 185.444 89.9653 184.961 89.9509C184.497 89.9137 183.985 89.9232 183.425 89.9794C181.787 90.1437 180.481 90.7982 179.506 91.9429C178.529 93.0669 177.948 94.8107 177.764 97.1742L177.317 103.123L177.389 103.525L175.255 131.408L167.139 132.222ZM164.195 108.868L164.651 102.698L171.43 102.018L172.176 101.943L183.494 100.808L183.038 106.978L164.195 108.868ZM183.442 106.937L183.929 100.764L203.27 98.8239L202.814 104.994L183.442 106.937ZM187.106 121.394L188.583 102.088L188.782 101.565L189.606 90.5528L197.534 89.7573L195.297 119.127C195.142 121.153 195.322 122.443 195.838 122.999C196.354 123.554 197.213 123.772 198.415 123.651C198.933 123.599 199.437 123.507 199.926 123.374C200.415 123.241 200.9 123.056 201.379 122.82L200.901 128.772C200.381 129.013 199.62 129.257 198.619 129.504C197.64 129.77 196.467 129.971 195.098 130.108C192.341 130.385 190.259 129.861 188.85 128.537C187.442 127.212 186.86 124.831 187.106 121.394Z" fill="url(#paint2_linear_7_11)"/>
<defs>
<linearGradient id="paint0_linear_7_11" x1="77.0367" y1="0" x2="77.0367" y2="154.073" gradientUnits="userSpaceOnUse">
<stop offset="0.129808" stop-color="#E6693F" stop-opacity="0.23"/>
<stop offset="1" stop-color="#E84424"/>
</linearGradient>
<linearGradient id="paint1_linear_7_11" x1="127.444" y1="0.488159" x2="127.444" y2="154.562" gradientUnits="userSpaceOnUse">
<stop offset="0.129808" stop-color="#E6693F" stop-opacity="0.23"/>
<stop offset="1" stop-color="#E84424"/>
</linearGradient>
<linearGradient id="paint2_linear_7_11" x1="101.399" y1="79.5214" x2="109.077" y2="156.056" gradientUnits="userSpaceOnUse">
<stop offset="0.120192" stop-color="#EE286D"/>
<stop offset="0.502404" stop-color="#5FEAA5"/>
<stop offset="0.884615" stop-color="#2235DE"/>
</linearGradient>
</defs>
</svg>
